# AST/ASF file generated using VICON BodyLanguage
# -----------------------------------------------
:version 1.10
:name VICON
:units
  mass 1.0
  length 0.45
  angle deg
:documentation
   .ast/.asf automatically generated from VICON data using
   VICON BodyBuilder and BodyLanguage model FoxedUp or BRILLIANT.MOD
:root
   order TX TY TZ RX RY RZ
   axis XYZ
   position 0 0 0  
   orientation 0 0 0 
:bonedata
  begin
     id 1 
     name lhipjoint
     direction 0.61886 -0.69539 0.365302 
     length 2.20474 
     axis 0 0 0  XYZ
  end
  begin
     id 2 
     name lfemur
     direction 0.34202 -0.939693 0  
     length 6.65149  
     axis 0 0 20  XYZ
    dof rx ry rz
    limits (-160.0 20.0)
           (-70.0 70.0)
           (-60.0 70.0)
  end
  begin
     id 3 
     name ltibia
     direction 0.34202 -0.939693 0   
     length 6.35814   
     axis 0 0 20   XYZ
    dof rx
    limits (-10.0 170.0)
  end
  begin
     id 4 
     name lfoot
     direction 0.101224 -0.278109 0.955201   
     length 2.18766   
     axis -90 7.62852e-016 20   XYZ
    dof rx rz
    limits (-45.0 90.0)
           (-70.0 20.0)
  end
  begin
     id 5 
     name ltoes
     direction 1.53524e-011 -4.21877e-011 1   
     length 1.09206   
     axis -90 7.62852e-016 20   XYZ
    dof rx
    limits (-90.0 20.0)
  end
  begin
     id 6 
     name rhipjoint
     direction -0.600207 -0.708087 0.371972   
     length 2.1652  
     axis 0 0 0  XYZ 
  end
  begin
     id 7 
     name rfemur
     direction -0.34202 -0.939693 0   
     length 6.54691   
     axis 0 0 -20   XYZ
    dof rx ry rz
    limits (-160.0 20.0)
           (-70.0 70.0)
           (-70.0 60.0)
  end
  begin
     id 8 
     name rtibia
     direction -0.34202 -0.939693 0   
     length 6.37474   
     axis 0 0 -20   XYZ
    dof rx
    limits (-10.0 170.0)
 end
 begin
     id 9 
     name rfoot
     direction -0.111266 -0.3057 0.945604   
     length 2.00903  
     axis -90 -7.62852e-016 -20   XYZ
    dof rx rz
    limits (-45.0 90.0)
           (-20.0 70.0)
  end
  begin
     id 10 
     name rtoes
     direction -1.5362e-011 -4.21913e-011 1   
     length 1.00221   
     axis -90 -7.62852e-016 -20   XYZ
    dof rx
    limits (-90.0 20.0)
  end
  begin
     id 11 
     name lowerback
     direction -0.0224561 0.999731 -0.00577314   
     length 2.10409   
     axis 0 0 0   XYZ
    dof rx ry rz
    limits (-20.0 45.0)
           (-30.0 30.0)
           (-30.0 30.0)
  end
  begin
     id 12 
     name upperback
     direction 0.0213126 0.999185 -0.0342817   
     length 2.09783   
     axis 0 0 0   XYZ
    dof rx ry rz
    limits (-20.0 45.0)
           (-30.0 30.0)
           (-30.0 30.0)
  end
  begin
     id 13 
     name thorax
     direction 0.0312356 0.999036 -0.0308451   
     length 2.09788   
     axis 0 0 0   XYZ
    dof rx ry rz
    limits (-20.0 45.0)
           (-30.0 30.0)
           (-30.0 30.0)
  end
  begin
     id 14 
     name lowerneck
     direction -0.0114419 0.996481 0.0830329   
     length 1.38575   
     axis 0 0 0   XYZ
    dof rx ry rz
    limits (-20.0 45.0)
           (-30.0 30.0)
           (-30.0 30.0)
  end
  begin
     id 15 
     name upperneck
     direction -0.0075675 0.996187 -0.0869092   
     length 1.39401   
     axis 0 0 0   XYZ
    dof rx ry rz
    limits (-20.0 45.0)
           (-30.0 30.0)
           (-30.0 30.0)
  end
  begin
     id 16
     name head
     direction -0.00222073 0.999264 -0.0382974  
     length 1.3964  
     axis 0 0 0   XYZ
    dof rx ry rz
    limits (-20.0 45.0)
           (-30.0 30.0)
           (-30.0 30.0)
  end
  begin
     id 17 
     name lclavicle
     direction 0.965962 0.222138 0.132556  
     length 2.81514  
     axis 0 0 0   XYZ
    dof ry rz
    limits (-20.0 10.0)
           (0.0 20.0)
  end
  begin
     id 18 
     name lhumerus
     direction 1 -4.48972e-011 7.03471e-018   
     length 4.47366   
     axis 180 -30 -90   XYZ
    dof rx ry rz
    limits (-60.0 90.0)
           (-90.0 90.0)
           (-90.0 90.0)
  end
  begin
     id 19
     name lradius
     direction 1 -4.48951e-011 -6.22192e-028   
     length 3.19948   
     axis 180 -30 -90   XYZ
    dof rx
    limits (-10.0 170.0)
  end
  begin
     id 20
     name lwrist
     direction 1 -4.48967e-011 -1.24264e-027   
     length 1.59974   
     axis 1.40095e-015 90 90   XYZ
    dof ry
    limits (-180.0 0.0)
 end
  begin
     id 21 
     name lhand
     direction 1 -4.4897e-011 -2.48528e-027   
     length 0.492667   
     axis 1.58582e-015 90 90   XYZ
    dof rx rz
    limits (-90.0 90.0)
           (-45.0 45.0)
  end
  begin
     id 22 
     name lfingers
     direction 1 -4.48996e-011 -4.97056e-027   
     length 0.397201   
     axis 3.17164e-015 90 90   XYZ
    dof rx
    limits (0.0 90.0)
  end
  begin
     id 23
     name lthumb
     direction 0.707107 -6.34981e-011 0.707107   
     length 0.570303   
     axis -90 45 2.85299e-015   XYZ
    dof rx rz
    limits (-45.0 45.0)
           (-45.0 45.0)
  end
  begin
     id 24 
     name rclavicle
     direction -0.961164 0.229034 0.153972   
     length 3.09348  
     axis 0 0 0   XYZ 
    dof ry rz
    limits (-10.0 20.0)
           (-20.0 0.0)
  end
  begin
     id 25 
     name rhumerus
     direction -1 -4.48971e-011 -9.06263e-028  
     length 4.3269   
     axis 180 30 90   XYZ
    dof rx ry rz
    limits (-90.0 60.0)
           (-90.0 90.0)
           (-90.0 90.0)
  end
  begin
     id 26 
     name rradius
     direction -1 -4.48953e-011 1.44659e-027   
     length 3.1896   
     axis 180 30 90   XYZ
    dof rx
    limits (-10.0 170.0)
  end
  begin
     id 27 
     name rwrist
     direction -1 -4.48988e-011 -1.24264e-027   
     length 1.5948   
     axis 1.40095e-015 -90 -90   XYZ
    dof ry
    limits (-180.0 0.0)
  end
  begin
     id 28
     name rhand
     direction -1 -4.49033e-011 -2.48528e-027   
     length 0.464496   
     axis 1.58582e-015 -90 -90   XYZ
    dof rx rz
    limits (-90.0 90.0)
           (-45.0 45.0)
  end
  begin
     id 29
     name rfingers
     direction -1 -4.48905e-011 -4.97056e-027   
     length 0.374489   
     axis 3.17164e-015 -90 -90   XYZ
    dof rx
    limits (0.0 90.0)
  end
  begin
     id 30
     name rthumb
     direction -0.707107 -6.34909e-011 0.707107   
     length 0.537693   
     axis -90 -45 -2.85299e-015   XYZ
    dof rx rz
    limits (-45.0 45.0)
           (-45.0 45.0)
  end
:hierarchy
  begin
    root lhipjoint rhipjoint lowerback
    lhipjoint lfemur
    lfemur ltibia
    ltibia lfoot
    lfoot ltoes
    rhipjoint rfemur
    rfemur rtibia
    rtibia rfoot
    rfoot rtoes
    lowerback upperback
    upperback thorax
    thorax lowerneck lclavicle rclavicle
    lowerneck upperneck
    upperneck head
    lclavicle lhumerus
    lhumerus lradius
    lradius lwrist
    lwrist lhand lthumb
    lhand lfingers
    rclavicle rhumerus
    rhumerus rradius
    rradius rwrist
    rwrist rhand rthumb
    rhand rfingers
  end

#!OML:ASF G:\acrobat\cartwheel_test 2\Patient 1\Session 2\acrobat4.ASF
:FULLY-SPECIFIED
:DEGREES
480
root 16.7464 15.4278 4.20669 190.824 298.196 208.081
lowerback 19.8939 3.10529 -7.81681
upperback 3.51354 1.23566 -6.65195
thorax -7.36434 0.456458 -3.09641
lowerneck -14.7392 1.36875 -2.5645
upperneck 2.02705 2.16431 0.75171
head 3.23044 1.05168 0.863073
rclavicle -1.90833e-014 3.49861e-014
rhumerus -13.1933 4.91995 -71.3711
rradius 46.5757
rwrist -22.2262
rhand -15.2644 326.516
rfingers 7.12502
rthumb 10.9098 -63.1804
lclavicle -1.90833e-014 3.49861e-014
lhumerus -18.3947 -33.8769 88.345
lradius 100.93
lwrist -163.095
lhand -20.6701 1.64109
lfingers 7.12502
lthumb 5.69287 31.5446
rfemur -29.0132 12.848 13.0133
rtibia 28.9607
rfoot -16.2645 -37.8141
rtoes -11.256
lfemur -236.576 181.55 -163.709
ltibia 50.4149
lfoot -15.8591 -2.29846
ltoes -18.8122
481
root 16.6065 15.3191 4.53627 187.989 301.822 208.4
lowerback 20.2602 2.67937 -7.29921
upperback 3.36808 0.748913 -6.43907
thorax -7.71427 0.217484 -3.04264
lowerneck -14.8656 1.88189 -3.05799
upperneck 2.99962 3.02427 -0.0782285
head 3.58602 1.42774 0.752905
rclavicle 1.04958e-013 1.19271e-013
rhumerus -12.5732 8.74783 -69.9921
rradius 48.7015
rwrist -21.935
rhand -14.6475 327.336
rfingers 7.12502
rthumb 11.5047 -62.328
lclavicle 1.04958e-013 1.19271e-013
lhumerus -19.3808 -32.9635 89.1633
lradius 103.266
lwrist -162.715
lhand -20.7065 2.31228
lfingers 7.12502
lthumb 5.65773 32.2167
rfemur -25.0157 12.5537 13.6474
rtibia 29.1862
rfoot -12.7259 -35.9986
rtoes -14.89
lfemur -233.254 180.287 -165.832
ltibia 52.8185
lfoot -18.8158 -2.59071
ltoes -16.3632
482
root 16.4809 15.2057 4.84398 186.075 305.148 207.781
lowerback 20.6485 2.73572 -7.36754
upperback 3.47722 0.745539 -6.30416
thorax -7.80629 0.203434 -2.86427
lowerneck -15.0746 2.02357 -2.62663
upperneck 3.4246 3.20602 -0.852572
head 3.79505 1.47765 0.439315
rclavicle -9.54166e-015 -3.49861e-014
rhumerus -11.5956 10.7059 -68.1041
rradius 51.1194
rwrist -21.6502
rhand -14.113 327.562
rfingers 7.12502
rthumb 12.0201 -62.073
lclavicle -9.54166e-015 -3.49861e-014
lhumerus -19.4575 -33.1844 89.4164
lradius 105.223
lwrist -161.744
lhand -20.6448 2.77403
lfingers 7.12502
lthumb 5.71726 32.6769
rfemur -21.5451 11.6308 14.1141
rtibia 30.2489
rfoot -15.3924 -34.4714
rtoes -7.85459
lfemur -230.364 178.495 -168.516
ltibia 55.0424
lfoot -21.3833 -2.7456
ltoes -14.451
483
root 16.3697 15.0964 5.11721 185.737 308.011 206.201
lowerback 20.3508 2.6583 -8.69826
upperback 3.42805 0.415161 -5.93903
thorax -7.71401 0.0787146 -1.61647
lowerneck -14.9279 2.12844 -2.77146
upperneck 3.43398 3.38181 -1.06984
head 3.76895 1.55007 0.403621
rclavicle 9.22361e-014 -1.27222e-014
rhumerus -9.95002 13.0021 -65.831
rradius 53.7395
rwrist -21.9313
rhand -14.0373 327.753
rfingers 7.12502
rthumb 12.0931 -61.8771
lclavicle 9.22361e-014 -1.27222e-014
lhumerus -19.2989 -32.5927 89.1271
lradius 106.796
lwrist -160.312
lhand -20.632 2.78793
lfingers 7.12502
lthumb 5.72966 32.6905
rfemur -19.3794 8.78332 14.5418
rtibia 32.057
rfoot -13.9491 -33.0506
rtoes -8.24647
lfemur -228.484 176.017 -171.956
ltibia 56.8715
lfoot -23.6124 -0.526922
ltoes -20.3385
484
root 16.2606 15.0062 5.36233 186.471 310.258 204.497
lowerback 19.4261 2.1828 -10.0628
upperback 3.1133 -0.358093 -5.77342
thorax -7.52751 -0.245859 -0.456186
lowerneck -14.7182 2.18727 -2.86229
upperneck 3.35124 3.4503 -0.857818
head 3.69166 1.59532 0.491351
rclavicle 6.36111e-015 1.27222e-014
rhumerus -8.14594 14.828 -64.1521
rradius 56.4786
rwrist -22.3398
rhand -14.1322 328.07
rfingers 7.12502
rthumb 12.0016 -61.5662
lclavicle 6.36111e-015 1.27222e-014
lhumerus -18.9256 -31.5244 87.6472
lradius 108.032
lwrist -158.468
lhand -20.8012 2.60527
lfingers 7.12502
lthumb 5.56626 32.5122
rfemur -18.5991 5.35525 14.979
rtibia 34.4904
rfoot -12.8713 -31.7895
rtoes -9.78929
lfemur -227.847 173.87 -175.113
ltibia 58.3295
lfoot -25.2427 1.92781
ltoes -24.7472
485
root 16.1457 14.9385 5.58999 186.874 311.888 203.836
lowerback 18.1681 1.95731 -10.2326
upperback 2.71658 -0.515693 -5.86619
thorax -7.26967 -0.306769 -0.411714
lowerneck -13.5622 1.73871 -1.7249
upperneck 2.84109 2.6089 -0.832142
head 3.31149 1.20906 0.213919
rclavicle 5.40694e-014 1.62208e-013
rhumerus -7.77764 14.0124 -63.2693
rradius 59.235
rwrist -22.2841
rhand -14.3597 327.687
rfingers 7.12502
rthumb 11.7822 -61.9617
lclavicle 5.40694e-014 1.62208e-013
lhumerus -18.3399 -32.1506 85.5594
lradius 108.916
lwrist -156.651
lhand -21.0093 1.56743
lfingers 7.12502
lthumb 5.3654 31.4795
rfemur -18.3746 1.86577 16.2979
rtibia 37.2672
rfoot -13.1675 -30.6989
rtoes -10.5146
lfemur -227.959 172.477 -176.974
ltibia 59.5227
lfoot -26.4338 2.24625
ltoes -22.7372
486
root 16.0343 14.8905 5.80636 186.987 313.045 203.62
lowerback 16.9123 1.38124 -10.4518
upperback 2.5101 -1.01674 -5.28176
thorax -6.75245 -0.518903 0.468567
lowerneck -13.0326 1.40167 -2.54684
upperneck 2.45857 2.24051 -0.425159
head 3.0645 1.0365 0.457986
rclavicle -4.77083e-014 -9.22361e-014
rhumerus -6.60173 13.9021 -61.9944
rradius 61.8406
rwrist -22.4627
rhand -15.0239 326.894
rfingers 7.12502
rthumb 11.1417 -62.7903
lclavicle -4.77083e-014 -9.22361e-014
lhumerus -17.9541 -31.1091 83.8837
lradius 109.658
lwrist -155.871
lhand -20.9664 0.712279
lfingers 7.12502
lthumb 5.40675 30.6233
rfemur -18.1724 -1.76699 18.2088
rtibia 39.9673
rfoot -13.3956 -29.5107
rtoes -11.5305
lfemur -228.253 171.696 -178.256
ltibia 60.4735
lfoot -27.276 1.93565
ltoes -19.1196
487
root 15.9309 14.8698 5.9978 187.455 314.679 203.062
lowerback 15.501 1.24445 -10.8521
upperback 2.26115 -1.02392 -5.08257
thorax -6.23321 -0.511603 0.905322
lowerneck -12.5805 0.960872 -2.80081
upperneck 2.43249 1.66077 -0.148422
head 2.97306 0.758195 0.550789
rclavicle 3.49861e-014 0
rhumerus -6.56929 12.8843 -61.7783
rradius 64.6237
rwrist -22.7077
rhand -15.9016 326.459
rfingers 7.12502
rthumb 10.295 -63.2694
lclavicle 3.49861e-014 0
lhumerus -18.526 -30.5402 81.3862
lradius 111.156
lwrist -155.394
lhand -21.0335 1.52816
lfingers 7.12502
lthumb 5.34204 31.4408
rfemur -18.0575 -4.43355 20.062
rtibia 42.3784
rfoot -13.0476 -28.1899
rtoes -11.0208
lfemur -228.186 170.454 -179.71
ltibia 61.0875
lfoot -27.9422 1.85744
ltoes -17.0176
488
root 15.8382 14.8704 6.18667 187.944 316.328 202.188
lowerback 14.5896 1.27587 -11.0376
upperback 2.04401 -0.914858 -5.29478
thorax -5.97818 -0.465098 0.757541
lowerneck -12.6437 0.426564 -2.78523
upperneck 3.03935 0.926304 0.42748
head 3.20653 0.415502 0.695527
rclavicle 5.08889e-014 1.87653e-013
rhumerus -7.35998 11.5579 -62.5663
rradius 67.5327
rwrist -23.194
rhand -16.827 326.431
rfingers 7.12502
rthumb 9.40228 -63.3393
lclavicle 5.08889e-014 1.87653e-013
lhumerus -18.4673 -30.1087 78.5354
lradius 111.696
lwrist -155.533
lhand -21.4313 2.49761
lfingers 7.12502
lthumb 4.95788 32.4196
rfemur -17.6095 -6.59623 21.766
rtibia 44.4919
rfoot -13.4438 -25.9469
rtoes -13.9247
lfemur -227.819 169.609 -181.318
ltibia 61.3224
lfoot -28.2885 2.41043
ltoes -16.325
